PathFileType	4	(X/Y/Z)	 s03c0203.trc
DataRate	CameraRate	NumFrames	NumMarkers	Units	OrigDataRate	OrigDataStartFrame	OrigNumFrames
200	200	4	50	mm	200	1501	2000
Frame#	Time	racr			lacr			c7			jug			rlel			rdr			llel			ldr			s2			lic			ric			lasi			rasi			rpsi			lpsi			rgt			lgt			rth1			rth2			rth3			rth4			rlfc			rmfc			rsh1			rsh2			rsh3			rsh4			rlmal			rcal			rtoe			rmt5			rmt1			lth1			lth2			lth4			lth3			llfc			lmfc			lsh1			lsh2			lsh3			lsh4			llmal			lcal			ltoe			lmt1			lmt5			SBIKE			LBIKE			RBIKE			
		X1	Y1	Z1	X2	Y2	Z2	X3	Y3	Z3	X4	Y4	Z4	X5	Y5	Z5	X6	Y6	Z6	X7	Y7	Z7	X8	Y8	Z8	X9	Y9	Z9	X10	Y10	Z10	X11	Y11	Z11	X12	Y12	Z12	X13	Y13	Z13	X14	Y14	Z14	X15	Y15	Z15	X16	Y16	Z16	X17	Y17	Z17	X18	Y18	Z18	X19	Y19	Z19	X20	Y20	Z20	X21	Y21	Z21	X22	Y22	Z22	X23	Y23	Z23	X24	Y24	Z24	X25	Y25	Z25	X26	Y26	Z26	X27	Y27	Z27	X28	Y28	Z28	X29	Y29	Z29	X30	Y30	Z30	X31	Y31	Z31	X32	Y32	Z32	X33	Y33	Z33	X34	Y34	Z34	X35	Y35	Z35	X36	Y36	Z36	X37	Y37	Z37	X38	Y38	Z38	X39	Y39	Z39	X40	Y40	Z40	X41	Y41	Z41	X42	Y42	Z42	X43	Y43	Z43	X44	Y44	Z44	X45	Y45	Z45	X46	Y46	Z46	X47	Y47	Z47	X48	Y48	Z48	X49	Y49	Z49	X50	Y50	Z50	
1501	7.5050	446.459734	1395.268776	-50.261330	446.550383	1421.475782	-367.004639	385.037591	1491.788983	-195.535879	384.597861	1315.586006	-204.476450	505.815313	1165.145386	94.586769	713.760847	987.164041	-6.967545	480.885326	1179.608718	-506.440652	709.432584	983.682832	-454.429068	-124.466268	1191.618855	-246.190729	45.069220	1245.052483	-417.369958	18.741861	1230.741360	-53.955114	70.338018	1173.547662	-384.556347	58.062576	1179.002107	-97.399046	-108.432833	1244.811923	-203.754364	-96.430278	1245.476818	-282.928550	1.062361	1154.187239	-45.323567	-10.655229	1100.831134	-438.605080	140.846971	1086.961178	-31.164913	229.646997	1093.997907	-32.766470	308.326216	1059.184572	-35.219588	235.920242	1127.495802	-49.413124	424.951663	999.930522	-58.925125	432.388551	981.492043	-192.482319	333.501700	867.832601	-42.342785	296.116811	789.001561	-58.129879	223.678714	738.256436	-60.998551	319.612965	771.747436	-83.454461	133.904503	639.948120	-82.279553	59.299973	619.204362	-125.423194	335.286552	477.396525	-111.668635	219.800556	518.617834	-50.390093	253.164596	517.149443	-160.680791	61.948167	957.345103	-462.896257	122.477056	895.757544	-471.882170	154.761547	914.395927	-472.042713	147.983866	810.898295	-458.700619	231.489267	711.245769	-443.478138	242.178084	699.632673	-322.096673	187.141707	544.988319	-461.685357	200.710686	462.597368	-446.298450	168.632042	378.255108	-435.180050	235.857579	461.117855	-427.978353	148.537052	252.159932	-414.283473	88.165880	213.044509	-366.463518	394.202796	177.667517	-356.354217	300.472829	184.537905	-319.090908	275.409677	157.971799	-432.879241	-218.090821	944.853026	-236.311595	-8.087145	83.689814	-437.237226	-13.982499	81.240190	-36.983528	
1502	7.5100	444.801321	1395.147867	-48.225970	448.360358	1421.363661	-364.698560	385.162766	1491.680883	-194.079405	384.573236	1315.478483	-203.002627	503.980267	1164.302187	94.997961	713.182873	987.334887	-6.576468	482.896898	1180.094587	-505.531454	711.136070	983.526458	-454.086863	-124.271140	1192.600491	-247.255365	46.098528	1244.916474	-417.919388	18.021935	1232.007366	-54.810741	70.793408	1173.347537	-384.990522	57.046182	1179.970424	-97.846194	-108.843742	1245.792125	-205.132103	-96.448969	1246.184345	-284.181903	0.880256	1156.859118	-45.772324	-10.783999	1101.393846	-440.809478	141.101420	1090.503539	-32.330621	229.942920	1097.878551	-34.446119	308.951064	1063.273380	-36.647441	235.824244	1131.294733	-51.223316	425.853619	1005.651950	-61.485983	432.744682	986.939989	-194.778992	336.562462	872.705544	-45.105483	300.468630	793.073517	-59.590574	229.001453	740.991273	-61.859912	324.026561	775.593453	-85.912135	141.152601	640.114964	-82.491302	67.578434	617.888950	-124.982373	345.603506	481.888750	-111.808434	229.319729	520.797084	-50.349318	262.568419	519.945181	-160.840237	61.322262	957.485671	-463.943454	121.656650	895.775699	-473.428178	154.018227	914.314061	-473.284515	146.921081	810.719993	-460.775454	230.312525	710.735727	-445.534630	241.915721	699.201785	-323.678365	183.225097	545.191662	-462.860970	195.665687	462.668515	-447.177792	162.344761	378.904909	-435.620090	230.836686	460.779310	-429.072930	140.684603	253.127898	-414.060446	80.019937	215.475258	-365.719538	384.918479	173.315896	-356.374604	291.412071	182.442437	-319.101565	265.564260	156.492557	-432.797668	-218.100106	944.883447	-236.402293	-8.093255	83.688364	-437.223782	-14.004675	81.225905	-36.957917	
1503	7.5150	443.300071	1394.930934	-46.379763	450.078344	1421.192766	-362.573503	385.312992	1491.544736	-192.792615	384.554846	1315.344682	-201.729360	502.252105	1163.496377	95.474059	712.619564	987.518367	-6.181093	485.026768	1180.600494	-504.697739	712.853194	983.348844	-453.822516	-124.935383	1193.871924	-247.688805	47.065542	1244.931799	-418.491927	17.447572	1233.502412	-55.438951	71.133141	1173.265611	-385.383483	56.089693	1180.890359	-98.260067	-109.052305	1247.005369	-206.148076	-96.631545	1247.036796	-285.135413	0.695383	1159.380295	-46.134135	-10.966680	1101.110858	-440.027428	141.324860	1093.630807	-33.244510	230.051173	1101.269183	-36.066476	309.172808	1066.882788	-38.476656	235.710518	1134.643456	-53.026994	426.382576	1010.776660	-63.847597	433.377255	991.665451	-196.940956	339.100379	876.666006	-47.319102	304.647951	796.201057	-60.953557	234.337246	742.644107	-62.664404	329.010135	779.407848	-86.081052	148.263103	639.352770	-82.665508	74.159369	615.394908	-125.094886	355.950027	485.880278	-111.957710	238.785781	522.289258	-50.337218	272.021390	522.154374	-160.779651	60.872090	957.803856	-465.001111	121.211147	896.181700	-474.997520	153.602842	914.744256	-474.624037	146.444535	811.092489	-462.909882	229.737966	710.643700	-447.826987	241.788959	699.433207	-325.656769	179.892355	545.996390	-464.205880	191.030027	463.366885	-448.151551	156.396690	380.225132	-435.981963	226.231690	460.972545	-430.203649	132.944685	254.984727	-413.837374	71.731232	219.051897	-365.371321	375.441428	169.445318	-356.545590	282.291715	180.991687	-319.068900	255.740644	155.641350	-432.628733	-218.113137	944.794306	-236.257914	-8.092706	83.747116	-437.200312	-13.993054	81.286026	-36.955318	
1504	7.5200	441.912690	1394.713799	-44.716414	451.831722	1420.914819	-360.446219	385.517829	1491.364660	-191.631829	384.629543	1315.166350	-200.570974	500.593284	1162.728046	95.871287	712.099731	987.690197	-5.705602	487.108507	1181.080249	-503.988342	714.548381	983.301151	-453.624160	-125.159227	1195.113614	-248.135307	47.768517	1245.165399	-418.997962	16.888062	1235.115859	-55.927298	71.377781	1173.315985	-385.813469	55.194366	1181.758802	-98.639136	-108.457388	1247.985538	-207.242182	-96.010765	1247.453885	-286.223290	0.547372	1161.671703	-46.355731	-11.263133	1101.306298	-440.093663	141.397016	1096.389042	-33.973558	230.165207	1104.069824	-37.460977	309.216661	1069.771647	-40.239492	235.570483	1137.305472	-54.658922	426.595311	1014.935654	-66.077711	433.503752	995.884923	-199.375351	341.518523	879.609460	-49.320586	308.698572	798.070438	-62.129511	239.497892	743.237255	-63.295709	333.539001	781.648732	-86.929497	155.316393	637.718745	-82.749311	81.330986	611.877098	-124.877153	366.352409	489.340927	-112.018219	248.283818	522.944103	-50.286493	281.472070	523.624267	-160.688369	60.663491	958.450665	-466.071782	121.145821	897.006946	-476.530409	153.524483	915.620862	-475.904444	146.579726	811.870282	-465.115324	229.836400	711.196698	-450.207624	242.328596	700.091044	-328.014789	177.134211	547.401859	-465.657966	186.883656	464.673496	-449.176753	150.833536	382.205636	-436.456599	222.118871	461.786129	-431.279925	125.401736	257.789014	-413.555494	63.026623	223.797835	-365.650619	366.035773	166.336724	-356.525343	273.213526	179.996958	-319.025371	245.852994	155.625768	-432.549840	-218.034194	944.934385	-236.080204	-8.102104	83.739975	-437.223075	-14.022844	81.277817	-36.914483	
